<svg width="153.33" height="9.95" viewBox="0 0 153.33 9.95" xmlns="http://www.w3.org/2000/svg"><g id="svgGroup" stroke-linecap="round" fill-rule="evenodd" font-size="9pt" stroke="#000" stroke-width="0.25mm" fill="#000" style="stroke:#000;stroke-width:0.25mm;fill:#000"><path d="M 126.01 7.63 L 125.11 7.63 L 125.11 2.43 L 125.98 2.43 L 125.98 3.3 Q 126.26 2.88 126.69 2.595 A 1.721 1.721 0 0 1 127.61 2.311 A 2.086 2.086 0 0 1 127.67 2.31 A 2.099 2.099 0 0 1 128.112 2.354 Q 128.41 2.418 128.639 2.576 A 1.313 1.313 0 0 1 128.685 2.61 A 1.575 1.575 0 0 1 129.23 3.379 A 1.915 1.915 0 0 1 129.24 3.41 Q 129.55 2.95 129.975 2.63 Q 130.4 2.31 131.03 2.31 A 2.144 2.144 0 0 1 131.519 2.362 Q 131.877 2.446 132.126 2.665 A 1.299 1.299 0 0 1 132.295 2.845 A 1.899 1.899 0 0 1 132.636 3.572 Q 132.701 3.839 132.709 4.15 A 3.46 3.46 0 0 1 132.71 4.24 L 132.71 7.63 L 131.81 7.63 L 131.81 4.31 Q 131.81 3.77 131.56 3.435 Q 131.31 3.1 130.87 3.1 A 1.193 1.193 0 0 0 130.194 3.313 A 1.6 1.6 0 0 0 130.035 3.435 Q 129.65 3.77 129.36 4.22 L 129.36 7.63 L 128.46 7.63 L 128.46 4.31 Q 128.46 3.77 128.21 3.435 Q 127.96 3.1 127.52 3.1 A 1.202 1.202 0 0 0 126.888 3.283 A 1.624 1.624 0 0 0 126.69 3.425 Q 126.3 3.75 126.01 4.19 L 126.01 7.63 Z M 15.72 9.51 L 16.05 8.73 Q 16.29 8.92 16.61 9.045 Q 16.886 9.153 17.266 9.168 A 3.179 3.179 0 0 0 17.39 9.17 A 2.17 2.17 0 0 0 17.842 9.126 Q 18.132 9.064 18.352 8.916 A 1.258 1.258 0 0 0 18.505 8.795 Q 18.91 8.42 18.91 7.6 L 18.91 6.96 A 1.58 1.58 0 0 1 18.71 7.158 Q 18.552 7.291 18.335 7.415 A 1.591 1.591 0 0 1 17.817 7.598 A 2.159 2.159 0 0 1 17.44 7.63 Q 16.85 7.63 16.32 7.325 A 2.224 2.224 0 0 1 15.591 6.641 A 2.744 2.744 0 0 1 15.46 6.43 A 2.518 2.518 0 0 1 15.189 5.668 A 3.503 3.503 0 0 1 15.13 5.01 A 3.206 3.206 0 0 1 15.222 4.229 A 2.668 2.668 0 0 1 15.455 3.62 Q 15.78 3.01 16.33 2.66 Q 16.88 2.31 17.54 2.31 A 2.237 2.237 0 0 1 18.022 2.36 A 1.871 1.871 0 0 1 18.34 2.46 A 2.57 2.57 0 0 1 18.723 2.657 A 2.1 2.1 0 0 1 18.96 2.83 L 18.96 2.43 L 19.78 2.43 L 19.78 7.51 A 4.069 4.069 0 0 1 19.745 8.063 Q 19.677 8.556 19.48 8.91 Q 19.18 9.45 18.645 9.7 A 2.581 2.581 0 0 1 17.985 9.902 A 3.524 3.524 0 0 1 17.39 9.95 Q 16.93 9.95 16.495 9.84 A 2.723 2.723 0 0 1 15.965 9.648 A 2.352 2.352 0 0 1 15.72 9.51 Z M 31.21 7.63 L 30.31 7.63 L 30.31 2.43 L 31.18 2.43 L 31.18 3.3 Q 31.46 2.88 31.895 2.595 A 1.732 1.732 0 0 1 32.606 2.333 A 2.263 2.263 0 0 1 32.93 2.31 A 2.322 2.322 0 0 1 33.437 2.362 Q 33.771 2.436 34.015 2.619 A 1.326 1.326 0 0 1 34.245 2.84 A 1.84 1.84 0 0 1 34.605 3.578 Q 34.671 3.842 34.679 4.151 A 3.377 3.377 0 0 1 34.68 4.24 L 34.68 7.63 L 33.78 7.63 L 33.78 4.34 Q 33.78 3.881 33.602 3.57 A 1.097 1.097 0 0 0 33.515 3.44 A 0.858 0.858 0 0 0 32.887 3.105 A 1.206 1.206 0 0 0 32.78 3.1 A 1.312 1.312 0 0 0 32.095 3.296 A 1.735 1.735 0 0 0 31.91 3.425 Q 31.5 3.75 31.21 4.19 L 31.21 7.63 Z M 63.11 7.63 L 62.21 7.63 L 62.21 2.43 L 63.08 2.43 L 63.08 3.3 Q 63.36 2.88 63.795 2.595 A 1.732 1.732 0 0 1 64.506 2.333 A 2.263 2.263 0 0 1 64.83 2.31 A 2.322 2.322 0 0 1 65.337 2.362 Q 65.671 2.436 65.915 2.619 A 1.326 1.326 0 0 1 66.145 2.84 A 1.84 1.84 0 0 1 66.505 3.578 Q 66.571 3.842 66.579 4.151 A 3.377 3.377 0 0 1 66.58 4.24 L 66.58 7.63 L 65.68 7.63 L 65.68 4.34 Q 65.68 3.881 65.502 3.57 A 1.097 1.097 0 0 0 65.415 3.44 A 0.858 0.858 0 0 0 64.787 3.105 A 1.206 1.206 0 0 0 64.68 3.1 A 1.312 1.312 0 0 0 63.995 3.296 A 1.735 1.735 0 0 0 63.81 3.425 Q 63.4 3.75 63.11 4.19 L 63.11 7.63 Z M 110.12 7.63 L 109.22 7.63 L 109.22 2.43 L 110.09 2.43 L 110.09 3.3 Q 110.37 2.88 110.805 2.595 A 1.732 1.732 0 0 1 111.516 2.333 A 2.263 2.263 0 0 1 111.84 2.31 A 2.322 2.322 0 0 1 112.347 2.362 Q 112.681 2.436 112.925 2.619 A 1.326 1.326 0 0 1 113.155 2.84 A 1.84 1.84 0 0 1 113.515 3.578 Q 113.581 3.842 113.589 4.151 A 3.377 3.377 0 0 1 113.59 4.24 L 113.59 7.63 L 112.69 7.63 L 112.69 4.34 Q 112.69 3.881 112.512 3.57 A 1.097 1.097 0 0 0 112.425 3.44 A 0.858 0.858 0 0 0 111.797 3.105 A 1.206 1.206 0 0 0 111.69 3.1 A 1.312 1.312 0 0 0 111.005 3.296 A 1.735 1.735 0 0 0 110.82 3.425 Q 110.41 3.75 110.12 4.19 L 110.12 7.63 Z M 40.33 7.14 L 39.65 7.72 L 37.9 5.55 L 36.17 7.7 L 35.53 7.14 L 37.38 4.99 L 35.6 2.93 L 36.3 2.32 L 37.91 4.4 L 39.49 2.36 L 40.16 2.93 L 38.43 4.95 L 40.33 7.14 Z M 5.22 7.21 L 5.6 6.46 Q 5.86 6.68 6.255 6.825 Q 6.65 6.97 7.1 6.97 A 2.711 2.711 0 0 0 7.408 6.954 Q 7.745 6.915 7.945 6.785 A 0.745 0.745 0 0 0 8.098 6.656 A 0.505 0.505 0 0 0 8.23 6.31 A 0.712 0.712 0 0 0 8.199 6.095 A 0.621 0.621 0 0 0 8.125 5.94 A 0.638 0.638 0 0 0 8.032 5.831 Q 7.931 5.733 7.763 5.638 A 2.231 2.231 0 0 0 7.74 5.625 A 2.846 2.846 0 0 0 7.541 5.526 Q 7.329 5.429 7.03 5.325 A 10.366 10.366 0 0 0 6.93 5.29 A 4.662 4.662 0 0 1 6.49 5.116 Q 6.08 4.927 5.835 4.695 A 1.132 1.132 0 0 1 5.506 4.095 A 1.679 1.679 0 0 1 5.47 3.74 A 1.212 1.212 0 0 1 5.865 2.838 A 1.746 1.746 0 0 1 5.995 2.725 Q 6.52 2.31 7.45 2.31 A 4.079 4.079 0 0 1 7.895 2.333 Q 8.133 2.359 8.34 2.415 A 3.877 3.877 0 0 1 8.753 2.551 A 3.111 3.111 0 0 1 9.04 2.68 L 8.79 3.42 A 2.453 2.453 0 0 0 8.423 3.243 A 3.019 3.019 0 0 0 8.175 3.16 A 2.502 2.502 0 0 0 7.727 3.075 A 3.184 3.184 0 0 0 7.41 3.06 Q 7.076 3.06 6.846 3.146 A 0.851 0.851 0 0 0 6.62 3.27 A 0.932 0.932 0 0 0 6.484 3.397 Q 6.414 3.479 6.38 3.567 A 0.453 0.453 0 0 0 6.35 3.73 A 0.492 0.492 0 0 0 6.5 4.085 A 0.708 0.708 0 0 0 6.56 4.14 Q 6.77 4.31 7.38 4.51 A 6.775 6.775 0 0 1 7.886 4.7 Q 8.368 4.904 8.643 5.133 A 1.495 1.495 0 0 1 8.76 5.24 A 1.36 1.36 0 0 1 9.148 6.165 A 1.789 1.789 0 0 1 9.15 6.24 A 1.387 1.387 0 0 1 9.044 6.792 Q 8.914 7.095 8.625 7.315 A 1.662 1.662 0 0 1 8.585 7.345 Q 8.111 7.685 7.366 7.739 A 4.042 4.042 0 0 1 7.07 7.75 A 3.999 3.999 0 0 1 6.484 7.709 A 3.095 3.095 0 0 1 6.005 7.6 Q 5.564 7.461 5.265 7.244 A 1.822 1.822 0 0 1 5.22 7.21 Z M 144.42 7.63 L 140.9 7.63 L 140.9 6.83 L 142.33 6.83 L 142.33 1.78 L 140.99 2.79 L 140.5 2.12 L 142.57 0.63 L 143.23 0.63 L 143.23 6.83 L 144.42 6.83 L 144.42 7.63 Z M 116.14 7.63 L 115.24 7.63 L 115.24 3.4 L 114.44 3.4 L 114.44 2.62 L 115.24 2.62 L 115.24 2.01 A 2.549 2.549 0 0 1 115.303 1.428 Q 115.413 0.955 115.72 0.63 A 1.629 1.629 0 0 1 115.73 0.62 Q 116.22 0.11 117.01 0.11 Q 117.392 0.11 117.687 0.192 A 1.788 1.788 0 0 1 117.73 0.205 Q 118.04 0.3 118.32 0.44 L 118.05 1.2 A 3.896 3.896 0 0 0 117.689 1.034 A 4.388 4.388 0 0 0 117.6 1 A 1.417 1.417 0 0 0 117.238 0.918 A 1.736 1.736 0 0 0 117.07 0.91 Q 116.65 0.91 116.395 1.175 A 0.846 0.846 0 0 0 116.2 1.512 Q 116.14 1.702 116.14 1.95 L 116.14 2.62 L 117.68 2.62 L 117.68 3.4 L 116.14 3.4 L 116.14 7.63 Z M 86.93 2.95 L 86.93 0.23 L 87.83 0.23 L 87.83 6.37 Q 87.83 6.75 88.015 6.865 Q 88.2 6.98 88.42 6.98 L 88.23 7.68 A 1.785 1.785 0 0 1 87.804 7.633 Q 87.228 7.491 87.07 6.92 Q 86.853 7.225 86.467 7.482 A 3.218 3.218 0 0 1 86.455 7.49 A 1.514 1.514 0 0 1 85.954 7.698 Q 85.727 7.75 85.46 7.75 Q 84.82 7.75 84.29 7.42 A 2.269 2.269 0 0 1 83.536 6.641 A 2.762 2.762 0 0 1 83.45 6.485 A 2.753 2.753 0 0 1 83.191 5.691 A 3.722 3.722 0 0 1 83.14 5.06 A 3.394 3.394 0 0 1 83.229 4.269 A 2.796 2.796 0 0 1 83.455 3.65 A 2.729 2.729 0 0 1 83.917 2.991 A 2.419 2.419 0 0 1 84.295 2.67 Q 84.82 2.31 85.45 2.31 A 2.164 2.164 0 0 1 85.877 2.35 A 1.594 1.594 0 0 1 86.345 2.52 Q 86.632 2.681 86.822 2.847 A 1.659 1.659 0 0 1 86.93 2.95 Z M 12.68 7.63 L 11.74 7.63 L 9.65 2.67 L 10.47 2.33 L 12.24 6.61 L 14.01 2.33 L 14.78 2.67 L 12.68 7.63 Z M 102.21 2.62 L 101.94 3.38 A 3.042 3.042 0 0 0 101.65 3.252 A 2.342 2.342 0 0 0 101.405 3.175 A 2.054 2.054 0 0 0 101.101 3.122 A 2.636 2.636 0 0 0 100.84 3.11 A 1.589 1.589 0 0 0 100.115 3.274 A 1.613 1.613 0 0 0 99.665 3.615 Q 99.214 4.094 99.191 4.921 A 3.228 3.228 0 0 0 99.19 5.01 Q 99.19 5.55 99.39 5.99 A 1.856 1.856 0 0 0 99.681 6.448 A 1.628 1.628 0 0 0 99.945 6.69 A 1.346 1.346 0 0 0 100.662 6.946 A 1.691 1.691 0 0 0 100.78 6.95 A 2.842 2.842 0 0 0 101.071 6.936 Q 101.27 6.915 101.43 6.865 Q 101.699 6.78 102.008 6.621 A 5.304 5.304 0 0 0 102.01 6.62 L 102.29 7.38 Q 101.98 7.55 101.595 7.65 Q 101.216 7.748 100.735 7.75 A 4.781 4.781 0 0 1 100.72 7.75 Q 99.98 7.75 99.425 7.405 Q 98.87 7.06 98.57 6.445 A 2.936 2.936 0 0 1 98.306 5.564 A 3.802 3.802 0 0 1 98.27 5.03 A 3.204 3.204 0 0 1 98.401 4.102 A 2.88 2.88 0 0 1 98.575 3.66 Q 98.88 3.04 99.45 2.675 A 2.307 2.307 0 0 1 100.417 2.333 A 2.961 2.961 0 0 1 100.79 2.31 A 4.131 4.131 0 0 1 101.155 2.325 Q 101.342 2.342 101.505 2.377 A 2.397 2.397 0 0 1 101.565 2.39 Q 101.9 2.47 102.21 2.62 Z M 80.98 2.85 L 80.98 2.43 L 81.8 2.43 L 81.8 6.37 Q 81.8 6.75 81.985 6.865 Q 82.17 6.98 82.39 6.98 L 82.2 7.68 A 1.772 1.772 0 0 1 81.774 7.633 Q 81.21 7.493 81.05 6.938 A 1.359 1.359 0 0 1 81.04 6.9 Q 80.81 7.22 80.415 7.485 Q 80.044 7.734 79.483 7.749 A 2.72 2.72 0 0 1 79.41 7.75 Q 78.76 7.75 78.23 7.42 A 2.295 2.295 0 0 1 77.489 6.667 A 2.792 2.792 0 0 1 77.385 6.485 A 2.723 2.723 0 0 1 77.122 5.691 A 3.664 3.664 0 0 1 77.07 5.06 A 3.314 3.314 0 0 1 77.17 4.233 A 2.797 2.797 0 0 1 77.385 3.66 Q 77.7 3.04 78.255 2.675 A 2.23 2.23 0 0 1 79.374 2.314 A 2.739 2.739 0 0 1 79.53 2.31 A 2.258 2.258 0 0 1 80.009 2.359 A 1.87 1.87 0 0 1 80.345 2.465 A 2.6 2.6 0 0 1 80.774 2.694 A 2.21 2.21 0 0 1 80.98 2.85 Z M 68.08 6 L 68.08 0.23 L 68.98 0.23 L 68.98 5.91 A 2.064 2.064 0 0 0 68.999 6.199 Q 69.045 6.525 69.205 6.71 Q 69.43 6.97 69.83 6.97 Q 70.02 6.97 70.205 6.925 Q 70.39 6.88 70.52 6.82 L 70.74 7.55 Q 70.6 7.612 70.409 7.662 A 3.498 3.498 0 0 1 70.295 7.69 A 2.382 2.382 0 0 1 69.979 7.739 A 3.051 3.051 0 0 1 69.71 7.75 A 2.086 2.086 0 0 1 69.221 7.695 A 1.754 1.754 0 0 1 68.88 7.575 A 1.268 1.268 0 0 1 68.348 7.098 A 1.585 1.585 0 0 1 68.295 7.01 Q 68.08 6.62 68.08 6 Z M 50.54 8.86 L 50.01 8.56 A 11.154 11.154 0 0 0 50.466 7.328 A 13.424 13.424 0 0 0 50.65 6.67 A 8.542 8.542 0 0 0 50.879 5.241 A 10.445 10.445 0 0 0 50.91 4.43 A 10.045 10.045 0 0 0 50.818 3.046 A 8.224 8.224 0 0 0 50.65 2.175 Q 50.39 1.14 50.01 0.3 L 50.54 0 Q 51.16 1.05 51.51 2.115 A 7.055 7.055 0 0 1 51.835 3.779 A 8.433 8.433 0 0 1 51.86 4.43 Q 51.86 5.59 51.51 6.675 Q 51.16 7.76 50.54 8.86 Z M 134.57 8.86 L 134.04 8.56 A 11.154 11.154 0 0 0 134.496 7.328 A 13.424 13.424 0 0 0 134.68 6.67 A 8.542 8.542 0 0 0 134.909 5.241 A 10.445 10.445 0 0 0 134.94 4.43 A 10.045 10.045 0 0 0 134.848 3.046 A 8.224 8.224 0 0 0 134.68 2.175 Q 134.42 1.14 134.04 0.3 L 134.57 0 Q 135.19 1.05 135.54 2.115 A 7.055 7.055 0 0 1 135.865 3.779 A 8.433 8.433 0 0 1 135.89 4.43 Q 135.89 5.59 135.54 6.675 Q 135.19 7.76 134.57 8.86 Z M 146.57 8.86 L 146.04 8.56 A 11.154 11.154 0 0 0 146.496 7.328 A 13.424 13.424 0 0 0 146.68 6.67 A 8.542 8.542 0 0 0 146.909 5.241 A 10.445 10.445 0 0 0 146.94 4.43 A 10.045 10.045 0 0 0 146.848 3.046 A 8.224 8.224 0 0 0 146.68 2.175 Q 146.42 1.14 146.04 0.3 L 146.57 0 Q 147.19 1.05 147.54 2.115 A 7.055 7.055 0 0 1 147.865 3.779 A 8.433 8.433 0 0 1 147.89 4.43 Q 147.89 5.59 147.54 6.675 Q 147.19 7.76 146.57 8.86 Z M 48.85 8.56 L 48.32 8.86 A 12.483 12.483 0 0 1 47.595 7.355 A 10.739 10.739 0 0 1 47.35 6.675 Q 47 5.59 47 4.43 A 7.73 7.73 0 0 1 47.146 2.904 A 6.617 6.617 0 0 1 47.355 2.115 A 11.116 11.116 0 0 1 48.1 0.394 A 12.598 12.598 0 0 1 48.32 0 L 48.85 0.3 Q 48.48 1.14 48.215 2.175 A 8.474 8.474 0 0 0 47.981 3.613 A 10.403 10.403 0 0 0 47.95 4.43 A 9.693 9.693 0 0 0 48.048 5.838 A 8 8 0 0 0 48.215 6.67 A 13.907 13.907 0 0 0 48.587 7.891 A 11.487 11.487 0 0 0 48.85 8.56 Z M 97.24 8.56 L 96.71 8.86 A 12.483 12.483 0 0 1 95.985 7.355 A 10.739 10.739 0 0 1 95.74 6.675 Q 95.39 5.59 95.39 4.43 A 7.73 7.73 0 0 1 95.536 2.904 A 6.617 6.617 0 0 1 95.745 2.115 A 11.116 11.116 0 0 1 96.49 0.394 A 12.598 12.598 0 0 1 96.71 0 L 97.24 0.3 Q 96.87 1.14 96.605 2.175 A 8.474 8.474 0 0 0 96.371 3.613 A 10.403 10.403 0 0 0 96.34 4.43 A 9.693 9.693 0 0 0 96.438 5.838 A 8 8 0 0 0 96.605 6.67 A 13.907 13.907 0 0 0 96.977 7.891 A 11.487 11.487 0 0 0 97.24 8.56 Z M 138.88 8.56 L 138.35 8.86 A 12.483 12.483 0 0 1 137.625 7.355 A 10.739 10.739 0 0 1 137.38 6.675 Q 137.03 5.59 137.03 4.43 A 7.73 7.73 0 0 1 137.176 2.904 A 6.617 6.617 0 0 1 137.385 2.115 A 11.116 11.116 0 0 1 138.13 0.394 A 12.598 12.598 0 0 1 138.35 0 L 138.88 0.3 Q 138.51 1.14 138.245 2.175 A 8.474 8.474 0 0 0 138.011 3.613 A 10.403 10.403 0 0 0 137.98 4.43 A 9.693 9.693 0 0 0 138.078 5.838 A 8 8 0 0 0 138.245 6.67 A 13.907 13.907 0 0 0 138.617 7.891 A 11.487 11.487 0 0 0 138.88 8.56 Z M 122.02 7.63 L 121.12 7.63 L 121.12 2.43 L 121.99 2.43 L 121.99 3.56 Q 122.12 3.23 122.34 2.945 Q 122.56 2.66 122.89 2.485 A 1.482 1.482 0 0 1 123.358 2.333 A 1.946 1.946 0 0 1 123.66 2.31 A 3.013 3.013 0 0 1 123.96 2.325 A 1.897 1.897 0 0 1 124.065 2.338 Q 124.148 2.351 124.21 2.37 L 123.94 3.3 A 0.976 0.976 0 0 0 123.725 3.239 Q 123.626 3.222 123.513 3.22 A 1.657 1.657 0 0 0 123.49 3.22 A 1.296 1.296 0 0 0 122.827 3.405 A 1.561 1.561 0 0 0 122.785 3.43 A 1.34 1.34 0 0 0 122.438 3.75 Q 122.327 3.892 122.238 4.074 A 2.293 2.293 0 0 0 122.235 4.08 A 1.932 1.932 0 0 0 122.088 4.511 Q 122.042 4.719 122.027 4.963 A 3.909 3.909 0 0 0 122.02 5.2 L 122.02 7.63 Z M 25.656 7.616 A 2.721 2.721 0 0 0 26.52 7.75 A 3.073 3.073 0 0 0 26.747 7.742 A 2.526 2.526 0 0 0 27.845 7.41 Q 28.43 7.07 28.77 6.455 A 2.626 2.626 0 0 0 29.035 5.741 A 3.418 3.418 0 0 0 29.11 5.01 A 3.454 3.454 0 0 0 29.061 4.419 A 2.579 2.579 0 0 0 28.765 3.575 Q 28.42 2.97 27.835 2.64 A 2.485 2.485 0 0 0 27.371 2.437 A 2.774 2.774 0 0 0 26.52 2.31 A 3.133 3.133 0 0 0 26.362 2.314 A 2.617 2.617 0 0 0 25.2 2.64 Q 24.61 2.97 24.27 3.58 A 2.602 2.602 0 0 0 23.995 4.339 A 3.501 3.501 0 0 0 23.93 5.03 Q 23.93 5.83 24.265 6.445 Q 24.6 7.06 25.19 7.405 A 2.456 2.456 0 0 0 25.656 7.616 Z M 57.556 7.616 A 2.721 2.721 0 0 0 58.42 7.75 A 3.073 3.073 0 0 0 58.647 7.742 A 2.526 2.526 0 0 0 59.745 7.41 Q 60.33 7.07 60.67 6.455 A 2.626 2.626 0 0 0 60.935 5.741 A 3.418 3.418 0 0 0 61.01 5.01 A 3.454 3.454 0 0 0 60.961 4.419 A 2.579 2.579 0 0 0 60.665 3.575 Q 60.32 2.97 59.735 2.64 A 2.485 2.485 0 0 0 59.271 2.437 A 2.774 2.774 0 0 0 58.42 2.31 A 3.133 3.133 0 0 0 58.262 2.314 A 2.617 2.617 0 0 0 57.1 2.64 Q 56.51 2.97 56.17 3.58 A 2.602 2.602 0 0 0 55.895 4.339 A 3.501 3.501 0 0 0 55.83 5.03 Q 55.83 5.83 56.165 6.445 Q 56.5 7.06 57.09 7.405 A 2.456 2.456 0 0 0 57.556 7.616 Z M 72.766 7.616 A 2.721 2.721 0 0 0 73.63 7.75 A 3.073 3.073 0 0 0 73.857 7.742 A 2.526 2.526 0 0 0 74.955 7.41 Q 75.54 7.07 75.88 6.455 A 2.626 2.626 0 0 0 76.145 5.741 A 3.418 3.418 0 0 0 76.22 5.01 A 3.454 3.454 0 0 0 76.171 4.419 A 2.579 2.579 0 0 0 75.875 3.575 Q 75.53 2.97 74.945 2.64 A 2.485 2.485 0 0 0 74.481 2.437 A 2.774 2.774 0 0 0 73.63 2.31 A 3.133 3.133 0 0 0 73.472 2.314 A 2.617 2.617 0 0 0 72.31 2.64 Q 71.72 2.97 71.38 3.58 A 2.602 2.602 0 0 0 71.105 4.339 A 3.501 3.501 0 0 0 71.04 5.03 Q 71.04 5.83 71.375 6.445 Q 71.71 7.06 72.3 7.405 A 2.456 2.456 0 0 0 72.766 7.616 Z M 104.566 7.616 A 2.721 2.721 0 0 0 105.43 7.75 A 3.073 3.073 0 0 0 105.657 7.742 A 2.526 2.526 0 0 0 106.755 7.41 Q 107.34 7.07 107.68 6.455 A 2.626 2.626 0 0 0 107.945 5.741 A 3.418 3.418 0 0 0 108.02 5.01 A 3.454 3.454 0 0 0 107.971 4.419 A 2.579 2.579 0 0 0 107.675 3.575 Q 107.33 2.97 106.745 2.64 A 2.485 2.485 0 0 0 106.281 2.437 A 2.774 2.774 0 0 0 105.43 2.31 A 3.133 3.133 0 0 0 105.272 2.314 A 2.617 2.617 0 0 0 104.11 2.64 Q 103.52 2.97 103.18 3.58 A 2.602 2.602 0 0 0 102.905 4.339 A 3.501 3.501 0 0 0 102.84 5.03 Q 102.84 5.83 103.175 6.445 Q 103.51 7.06 104.1 7.405 A 2.456 2.456 0 0 0 104.566 7.616 Z M 3.64 5.78 L 3.19 6.49 L 0 4.49 L 0 3.92 L 3.2 1.91 L 3.64 2.61 L 1.05 4.2 L 3.64 5.78 Z M 153.33 4.49 L 150.14 6.49 L 149.69 5.78 L 152.28 4.2 L 149.69 2.61 L 150.13 1.91 L 153.33 3.92 L 153.33 4.49 Z M 119.52 7.63 L 118.62 7.63 L 118.62 2.43 L 119.52 2.43 L 119.52 7.63 Z M 26.52 6.95 Q 27.31 6.95 27.75 6.415 A 1.88 1.88 0 0 0 28.132 5.606 A 2.71 2.71 0 0 0 28.19 5.03 A 2.138 2.138 0 0 0 28.068 4.301 A 2.001 2.001 0 0 0 27.97 4.075 A 1.92 1.92 0 0 0 27.553 3.518 A 1.817 1.817 0 0 0 27.375 3.375 Q 27 3.11 26.52 3.11 A 1.925 1.925 0 0 0 25.997 3.177 A 1.404 1.404 0 0 0 25.29 3.63 A 1.788 1.788 0 0 0 24.923 4.367 Q 24.857 4.633 24.851 4.945 A 3.288 3.288 0 0 0 24.85 5.01 Q 24.85 5.53 25.07 5.975 A 1.944 1.944 0 0 0 25.423 6.479 A 1.763 1.763 0 0 0 25.665 6.685 Q 26.04 6.95 26.52 6.95 Z M 58.42 6.95 Q 59.21 6.95 59.65 6.415 A 1.88 1.88 0 0 0 60.032 5.606 A 2.71 2.71 0 0 0 60.09 5.03 A 2.138 2.138 0 0 0 59.968 4.301 A 2.001 2.001 0 0 0 59.87 4.075 A 1.92 1.92 0 0 0 59.453 3.518 A 1.817 1.817 0 0 0 59.275 3.375 Q 58.9 3.11 58.42 3.11 A 1.925 1.925 0 0 0 57.897 3.177 A 1.404 1.404 0 0 0 57.19 3.63 A 1.788 1.788 0 0 0 56.823 4.367 Q 56.757 4.633 56.751 4.945 A 3.288 3.288 0 0 0 56.75 5.01 Q 56.75 5.53 56.97 5.975 A 1.944 1.944 0 0 0 57.323 6.479 A 1.763 1.763 0 0 0 57.565 6.685 Q 57.94 6.95 58.42 6.95 Z M 73.63 6.95 Q 74.42 6.95 74.86 6.415 A 1.88 1.88 0 0 0 75.242 5.606 A 2.71 2.71 0 0 0 75.3 5.03 A 2.138 2.138 0 0 0 75.178 4.301 A 2.001 2.001 0 0 0 75.08 4.075 A 1.92 1.92 0 0 0 74.663 3.518 A 1.817 1.817 0 0 0 74.485 3.375 Q 74.11 3.11 73.63 3.11 A 1.925 1.925 0 0 0 73.107 3.177 A 1.404 1.404 0 0 0 72.4 3.63 A 1.788 1.788 0 0 0 72.033 4.367 Q 71.967 4.633 71.961 4.945 A 3.288 3.288 0 0 0 71.96 5.01 Q 71.96 5.53 72.18 5.975 A 1.944 1.944 0 0 0 72.533 6.479 A 1.763 1.763 0 0 0 72.775 6.685 Q 73.15 6.95 73.63 6.95 Z M 105.43 6.95 Q 106.22 6.95 106.66 6.415 A 1.88 1.88 0 0 0 107.042 5.606 A 2.71 2.71 0 0 0 107.1 5.03 A 2.138 2.138 0 0 0 106.978 4.301 A 2.001 2.001 0 0 0 106.88 4.075 A 1.92 1.92 0 0 0 106.463 3.518 A 1.817 1.817 0 0 0 106.285 3.375 Q 105.91 3.11 105.43 3.11 A 1.925 1.925 0 0 0 104.907 3.177 A 1.404 1.404 0 0 0 104.2 3.63 A 1.788 1.788 0 0 0 103.833 4.367 Q 103.767 4.633 103.761 4.945 A 3.288 3.288 0 0 0 103.76 5.01 Q 103.76 5.53 103.98 5.975 A 1.944 1.944 0 0 0 104.333 6.479 A 1.763 1.763 0 0 0 104.575 6.685 Q 104.95 6.95 105.43 6.95 Z M 80.9 6.3 L 80.9 3.51 Q 80.63 3.32 80.305 3.205 Q 79.98 3.09 79.62 3.09 A 1.592 1.592 0 0 0 79.123 3.165 A 1.402 1.402 0 0 0 78.775 3.335 A 1.63 1.63 0 0 0 78.273 3.877 A 1.996 1.996 0 0 0 78.2 4.015 A 2.066 2.066 0 0 0 78.025 4.583 A 2.768 2.768 0 0 0 77.99 5.03 A 2.557 2.557 0 0 0 78.043 5.559 A 2.034 2.034 0 0 0 78.2 6.025 A 1.76 1.76 0 0 0 78.511 6.48 A 1.57 1.57 0 0 0 78.78 6.705 Q 79.15 6.95 79.61 6.95 Q 79.99 6.95 80.33 6.765 A 1.945 1.945 0 0 0 80.802 6.41 A 1.807 1.807 0 0 0 80.9 6.3 Z M 86.93 6.32 L 86.93 3.74 Q 86.74 3.5 86.4 3.295 Q 86.06 3.09 85.65 3.09 A 1.495 1.495 0 0 0 85.154 3.17 A 1.338 1.338 0 0 0 84.81 3.35 A 1.669 1.669 0 0 0 84.293 3.965 A 1.992 1.992 0 0 0 84.255 4.045 A 2.219 2.219 0 0 0 84.081 4.681 A 2.811 2.811 0 0 0 84.06 5.03 A 2.476 2.476 0 0 0 84.119 5.582 A 2.033 2.033 0 0 0 84.27 6.015 A 1.82 1.82 0 0 0 84.574 6.466 A 1.612 1.612 0 0 0 84.845 6.7 Q 85.21 6.95 85.66 6.95 Q 86.03 6.95 86.365 6.775 Q 86.7 6.6 86.93 6.32 Z M 18.88 6.23 L 18.88 3.51 Q 18.66 3.35 18.35 3.22 A 1.625 1.625 0 0 0 17.97 3.115 A 2.213 2.213 0 0 0 17.63 3.09 Q 17.22 3.09 16.86 3.31 A 1.573 1.573 0 0 0 16.38 3.773 A 1.962 1.962 0 0 0 16.275 3.945 A 1.78 1.78 0 0 0 16.099 4.438 Q 16.056 4.649 16.051 4.89 A 3.115 3.115 0 0 0 16.05 4.96 A 2.432 2.432 0 0 0 16.098 5.454 A 1.831 1.831 0 0 0 16.275 5.95 A 1.858 1.858 0 0 0 16.566 6.357 A 1.58 1.58 0 0 0 16.86 6.6 Q 17.22 6.83 17.64 6.83 A 1.528 1.528 0 0 0 18.098 6.763 A 1.361 1.361 0 0 0 18.36 6.65 A 2.085 2.085 0 0 0 18.658 6.448 A 1.631 1.631 0 0 0 18.88 6.23 Z M 45.4 3.68 L 41.46 3.68 L 41.46 2.89 L 45.4 2.89 L 45.4 3.68 Z M 45.4 5.5 L 41.46 5.5 L 41.46 4.71 L 45.4 4.71 L 45.4 5.5 Z M 93.79 3.68 L 89.85 3.68 L 89.85 2.89 L 93.79 2.89 L 93.79 3.68 Z M 93.79 5.5 L 89.85 5.5 L 89.85 4.71 L 93.79 4.71 L 93.79 5.5 Z M 118.634 1.359 A 0.597 0.597 0 0 0 119.07 1.54 A 0.818 0.818 0 0 0 119.22 1.527 A 0.565 0.565 0 0 0 119.53 1.365 A 0.578 0.578 0 0 0 119.672 1.118 A 0.751 0.751 0 0 0 119.7 0.91 A 0.725 0.725 0 0 0 119.7 0.902 A 0.606 0.606 0 0 0 119.515 0.465 A 0.738 0.738 0 0 0 119.509 0.459 A 0.606 0.606 0 0 0 119.07 0.28 A 0.826 0.826 0 0 0 118.904 0.296 A 0.566 0.566 0 0 0 118.61 0.45 A 0.559 0.559 0 0 0 118.463 0.713 A 0.799 0.799 0 0 0 118.44 0.91 Q 118.44 1.16 118.625 1.35 A 0.747 0.747 0 0 0 118.634 1.359 Z" vector-effect="non-scaling-stroke"/></g></svg>